<svg width="108" height="66" viewBox="0 0 108 66" fill="none" xmlns="http://www.w3.org/2000/svg">
<path d="M61.206 23.2923C64.2113 23.2923 66.6476 20.8561 66.6476 17.8508C66.6476 14.8456 64.2113 12.4093 61.206 12.4093C58.2008 12.4093 55.7645 14.8456 55.7645 17.8508C55.7645 20.8561 58.2008 23.2923 61.206 23.2923Z" fill="#F4F4F4"/>
<path d="M72.3807 15.3741H67.6267C68.0816 15.3741 68.3445 17.2827 68.3445 18.3964C68.3445 19.5101 68.0816 19.9075 67.6267 21.4186H72.3807C74.0943 21.4186 75.483 20.11 75.483 18.3964C75.483 16.6828 74.0943 15.3741 72.3807 15.3741Z" fill="#F4F4F4"/>
<path d="M54.0676 18.3964C54.0676 17.2827 54.329 15.3741 54.7838 15.3741H35.1651C33.453 15.3741 32.0643 16.6828 32.0643 18.3964C32.0643 20.11 33.453 21.4186 35.1651 21.4186H54.7838C54.329 19.9075 54.0676 19.5101 54.0676 18.3964Z" fill="#F4F4F4"/>
<path d="M43.8373 38.1783C46.8426 38.1783 49.2789 35.7421 49.2789 32.7368C49.2789 29.7315 46.8426 27.2953 43.8373 27.2953C40.8321 27.2953 38.3958 29.7315 38.3958 32.7368C38.3958 35.7421 40.8321 38.1783 43.8373 38.1783Z" fill="#F4F4F4"/>
<path d="M36.7004 32.7519C36.7004 31.6382 36.9618 30.4852 37.4166 28.9741H35.1651C33.453 28.9741 32.0643 31.0383 32.0643 32.7519C32.0643 34.4655 33.453 36.5297 35.1651 36.5297H37.4166C36.9618 35.0186 36.7004 33.8641 36.7004 32.7519Z" fill="#F4F4F4"/>
<path d="M72.3807 28.9741H50.2581C50.7114 30.4852 50.9743 31.6382 50.9743 32.7519C50.9743 33.8641 50.7114 35.0186 50.2581 36.5297H72.3807C74.0943 36.5297 75.483 34.4655 75.483 32.7519C75.483 31.0383 74.0943 28.9741 72.3807 28.9741Z" fill="#F4F4F4"/>
<path d="M66.167 53.0658C69.1723 53.0658 71.6086 50.6295 71.6086 47.6242C71.6086 44.619 69.1723 42.1827 66.167 42.1827C63.1618 42.1827 60.7255 44.619 60.7255 47.6242C60.7255 50.6295 63.1618 53.0658 66.167 53.0658Z" fill="#F4F4F4"/>
<path d="M59.03 47.1074C59.03 45.9953 59.2915 45.5963 59.7478 44.0852H35.1651C33.453 44.0852 32.0643 45.3953 32.0643 47.1074C32.0643 48.8225 33.453 50.1297 35.1651 50.1297H59.7478C59.2915 50.1297 59.03 48.2196 59.03 47.1074Z" fill="#F4F4F4"/>
<path d="M72.5998 44.5446C73.0471 45.4784 73.3055 46.5196 73.3055 47.6242C73.3055 48.7288 73.0471 49.77 72.5998 50.7038C74.2076 50.5905 75.483 49.2622 75.483 47.6242C75.483 45.9862 74.2076 44.6579 72.5998 44.5446Z" fill="#F4F4F4"/>
<path d="M9.98542 32.7543C11.5978 33.7547 12.8596 34.8729 13.7677 36.112C14.6759 37.3496 15.3121 38.9287 15.6763 40.8493C16.0389 42.77 16.2218 45.2285 16.2218 48.2296C16.2218 50.4781 16.2732 52.1373 16.3759 53.2057C16.4772 54.2725 16.6827 55.0855 16.9894 55.6416C17.2962 56.1977 17.6649 56.5619 18.0971 56.7326C18.5277 56.9034 19.2667 57.0681 20.3124 57.2267C21.1752 57.3401 21.8915 57.7617 22.4596 58.4885C23.0278 59.2139 23.3119 60.1689 23.3119 61.3521C23.3119 64.1008 21.6421 65.4759 18.3026 65.4759C16.2339 65.4759 14.3888 65.0452 12.7628 64.1824C11.1384 63.318 9.88267 62.0971 8.99716 60.518C8.11165 58.9388 7.6568 57.127 7.63413 55.081C7.56613 51.6266 7.49813 48.8552 7.43013 46.7653C7.36213 44.674 7.25938 43.323 7.12338 42.708C6.78187 41.1863 6.27564 40.0379 5.60622 39.2657C4.93529 38.4935 4.06036 37.7727 2.98142 37.1018C1.90249 36.4324 1.13484 35.8294 0.681511 35.296C0.228178 34.7626 0 33.9148 0 32.7558C0 31.0755 0.658844 29.8137 1.97804 28.972C3.61458 27.9505 4.77813 27.0816 5.47173 26.3653C6.16533 25.6491 6.65342 24.7288 6.93751 23.6045C7.2216 22.4803 7.3848 21.2532 7.43164 19.9235C7.47698 18.5937 7.54498 15.3962 7.63565 10.3279C7.70365 7.19235 8.69796 4.68844 10.6186 2.81315C12.5392 0.937865 15.1005 0.000976562 18.3041 0.000976562C21.6436 0.000976562 23.3134 1.35342 23.3134 4.0568C23.3134 5.28382 23.0339 6.24942 22.4778 6.9536C21.9202 7.65778 21.1994 8.06729 20.3139 8.18062C18.9962 8.36347 18.0759 8.63546 17.5531 8.99964C17.0302 9.36382 16.6902 10.068 16.5316 11.1122C16.3729 12.1579 16.2701 14.1797 16.2248 17.1793C16.1795 20.1108 16.0042 22.5135 15.6959 24.3888C15.3892 26.2626 14.7862 27.8598 13.8901 29.1775C12.9895 30.4937 11.6884 31.686 9.98542 32.7543Z" fill="#F4F4F4"/>
<path d="M93.6587 29.1765C92.7611 27.8588 92.1597 26.2616 91.8529 24.3878C91.5461 22.5125 91.3724 20.1099 91.324 17.1783C91.2802 14.1788 91.1759 12.1569 91.0173 11.1112C90.8601 10.067 90.5186 9.36133 89.9958 8.99867C89.4729 8.636 88.5526 8.36249 87.2349 8.17964C86.3479 8.06631 85.6286 7.6568 85.0695 6.95262C84.5149 6.24844 84.2339 5.28284 84.2339 4.05582C84.2339 1.35244 85.9037 0 89.2447 0C92.4468 0 95.0096 0.936889 96.9302 2.81218C98.8509 4.68747 99.8437 7.19138 99.9132 10.3269C100.004 15.3952 100.07 18.5927 100.119 19.9225C100.163 21.2508 100.329 22.4778 100.611 23.6036C100.895 24.7293 101.385 25.6496 102.079 26.3644C102.771 27.0806 103.936 27.9495 105.571 28.971C106.89 29.8127 107.549 31.0745 107.549 32.7548C107.549 33.9139 107.322 34.7601 106.867 35.295C106.412 35.83 105.646 36.4314 104.569 37.1008C103.488 37.7702 102.615 38.4925 101.944 39.2647C101.275 40.0384 100.768 41.1853 100.427 42.707C100.291 43.3205 100.19 44.673 100.122 46.7644C100.052 48.8542 99.9842 51.6256 99.9162 55.08C99.8935 57.126 99.4402 58.9379 98.5532 60.517C97.6662 62.0961 96.4119 63.3171 94.7875 64.1814C93.163 65.0443 91.3165 65.4749 89.2493 65.4749C85.9082 65.4749 84.2384 64.1013 84.2384 61.3511C84.2384 60.1694 84.5225 59.2144 85.0907 58.4875C85.6589 57.7607 86.3751 57.3391 87.238 57.2258C88.2837 57.0671 89.0226 56.9024 89.4533 56.7316C89.8854 56.5624 90.2542 56.1967 90.5609 55.6406C90.8662 55.0845 91.0732 54.2716 91.1729 53.2047C91.2757 52.1364 91.327 50.4772 91.327 48.2286C91.327 45.2291 91.5099 42.7705 91.8725 40.8484C92.2352 38.9277 92.8729 37.3501 93.7826 36.111C94.6923 34.8719 95.9526 33.7537 97.5649 32.7533C95.8574 31.6865 94.5563 30.4942 93.6587 29.1765Z" fill="#F4F4F4"/>
</svg>
