<svg width="105" height="131" viewBox="0 0 105 131" fill="none" xmlns="http://www.w3.org/2000/svg">
<g clip-path="url(#clip0)">
<path d="M77.0831 78.7344H27.9136V85.2844H77.0831V78.7344Z" fill="#F4F4F4"/>
<path d="M77.0831 67.1375H27.9136V73.6875H77.0831V67.1375Z" fill="#F4F4F4"/>
<path d="M43.913 44.3467C45.2977 44.3467 46.4133 44.0553 47.2566 43.4756C48.1031 42.8959 48.6872 42.1328 49.0055 41.1765C49.245 40.4429 49.3631 39.4015 49.3631 38.0424V27.6541H46.0556V38.2552C46.0556 39.5816 45.9014 40.456 45.593 40.8785C45.2878 41.301 44.7628 41.5106 44.0213 41.5106C43.2896 41.5106 42.7416 41.2158 42.3839 40.6263C42.1477 40.2366 42.0066 39.5718 41.9705 38.6319L38.8402 38.9888C38.85 40.7442 39.2897 42.0739 40.1625 42.9811C41.0419 43.8915 42.2921 44.3467 43.913 44.3467Z" fill="#F4F4F4"/>
<path d="M58.8755 41.5566C57.8648 41.5566 57.0642 41.3044 56.4703 40.7968C55.8764 40.2891 55.4826 39.4966 55.2891 38.4093L52.0603 38.7237C52.2769 40.561 52.9462 41.9561 54.0553 42.9157C55.1709 43.8753 56.7656 44.3534 58.8459 44.3534C60.2733 44.3534 61.4676 44.1536 62.4225 43.7541C63.3806 43.3545 64.1222 42.7421 64.6439 41.9234C65.1689 41.1013 65.4281 40.2204 65.4281 39.2804C65.4281 38.2423 65.2116 37.3711 64.7719 36.6637C64.3355 35.9596 63.7317 35.4028 62.9541 34.9967C62.183 34.5906 60.9853 34.1944 59.3709 33.8177C57.7566 33.4346 56.7394 33.0678 56.3194 32.7173C55.9912 32.4422 55.8272 32.1082 55.8272 31.7217C55.8272 31.296 56.0044 30.9587 56.3555 30.6999C56.9001 30.3069 57.6548 30.1072 58.6195 30.1072C59.5514 30.1072 60.2536 30.2938 60.7228 30.6606C61.192 31.0307 61.4939 31.6366 61.635 32.4815L64.9556 32.3374C64.9031 30.8277 64.3551 29.6225 63.3117 28.7218C62.2716 27.8212 60.7162 27.3693 58.6523 27.3693C57.3891 27.3693 56.3095 27.5592 55.417 27.9391C54.5278 28.319 53.842 28.8725 53.3662 29.6028C52.8905 30.3299 52.6542 31.1126 52.6542 31.9477C52.6542 33.2446 53.1562 34.345 54.1669 35.2522C54.8855 35.8908 56.1356 36.4312 57.9141 36.8733C59.2987 37.2139 60.1814 37.4563 60.5751 37.5905C61.1428 37.7936 61.5398 38.0294 61.7662 38.3012C61.9959 38.573 62.1075 38.9071 62.1075 39.2935C62.1075 39.8994 61.8384 40.4267 61.2937 40.8754C60.7491 41.3306 59.9452 41.5566 58.8755 41.5566Z" fill="#F4F4F4"/>
<path d="M86.9531 0H34.4334L25.118 10.2376H11.4844V98.25C11.4844 101.853 14.4375 104.8 18.0469 104.8H86.9531C90.5625 104.8 93.5156 101.853 93.5156 98.25V6.55C93.5156 2.9475 90.5625 0 86.9531 0ZM86.9531 98.25H18.0469V16.7877H25.118H28.0252L29.9775 14.6392L37.3373 6.55H86.9531V98.25Z" fill="#F4F4F4"/>
</g>
<defs>
<clipPath id="clip0">
<rect width="105" height="131" fill="white"/>
</clipPath>
</defs>
</svg>
