<svg width="50" height="63" viewBox="0 0 50 63" fill="none" xmlns="http://www.w3.org/2000/svg">
<path d="M39.7 13.8097L26.35 1.76406C25.6 1.05846 24.45 1.05846 23.7 1.76406L10.3 13.8097C9.89999 14.2129 9.64999 14.7169 9.64999 15.3217V47.1241C9.64999 48.2329 10.55 49.1401 11.65 49.1401H38.35C39.45 49.1401 40.35 48.2329 40.35 47.1241V15.3217C40.35 14.7673 40.1 14.2129 39.7 13.8097ZM26.85 37.5985V39.9673C26.85 40.9753 26.05 41.8321 25 41.8321C23.95 41.8321 23.15 41.0257 23.15 39.9673V37.5985C21.05 37.4977 19.15 36.2881 18.15 34.3729C17.7 33.4657 18 32.3569 18.9 31.9033C19.8 31.4497 20.9 31.7521 21.35 32.6593C21.75 33.4153 22.6 33.9193 23.45 33.9193H26.4C27.7 33.9193 28.75 32.8609 28.75 31.5505C28.75 30.8953 28.5 30.3409 28.05 29.8873C27.6 29.4337 27 29.1817 26.4 29.1817H23.45C20.15 29.1817 17.45 26.4601 17.45 23.1337C17.45 21.5209 18.1 20.0089 19.2 18.8497C20.25 17.7913 21.65 17.1865 23.1 17.0857V14.6665C23.1 13.6585 23.9 12.8017 24.95 12.8017C26 12.8017 26.8 13.6081 26.8 14.6665V17.0857C28.9 17.1865 30.75 18.3961 31.75 20.2609C32.25 21.1681 31.9 22.2769 31 22.7809C30.1 23.2849 29 22.9321 28.5 22.0249C28.1 21.2185 27.3 20.7649 26.4 20.7649H23.45C22.85 20.7649 22.2 21.0169 21.8 21.4705C21.35 21.9241 21.1 22.5289 21.1 23.1337C21.1 24.4441 22.15 25.5025 23.45 25.5025H26.4C28 25.5025 29.5 26.1577 30.65 27.2665C31.8 28.4257 32.4 29.9377 32.4 31.5505C32.5 34.7761 30 37.3969 26.85 37.5985Z" fill="#292929"/>
</svg>
