<svg width="31" height="48" viewBox="0 0 31 48" fill="none" xmlns="http://www.w3.org/2000/svg">
<path d="M30.05 12.5748L16.7 0.5292C15.95 -0.1764 14.8 -0.1764 14.05 0.5292L0.650001 12.5748C0.250001 12.978 0 13.482 0 14.0868V45.8892C0 46.998 0.9 47.9052 2 47.9052H28.7C29.8 47.9052 30.7 46.998 30.7 45.8892V14.0868C30.7 13.5324 30.45 12.978 30.05 12.5748ZM17.2 36.3636V38.7324C17.2 39.7404 16.4 40.5972 15.35 40.5972C14.3 40.5972 13.5 39.7908 13.5 38.7324V36.3636C11.4 36.2628 9.5 35.0532 8.5 33.138C8.05 32.2308 8.35 31.122 9.25 30.6684C10.15 30.2148 11.25 30.5172 11.7 31.4244C12.1 32.1804 12.95 32.6844 13.8 32.6844H16.75C18.05 32.6844 19.1 31.626 19.1 30.3156C19.1 29.6604 18.85 29.106 18.4 28.6524C17.95 28.1988 17.35 27.9468 16.75 27.9468H13.8C10.5 27.9468 7.8 25.2252 7.8 21.8988C7.8 20.286 8.45 18.774 9.55 17.6148C10.6 16.5564 12 15.9516 13.45 15.8508V13.4316C13.45 12.4236 14.25 11.5668 15.3 11.5668C16.35 11.5668 17.15 12.3732 17.15 13.4316V15.8508C19.25 15.9516 21.1 17.1612 22.1 19.026C22.6 19.9332 22.25 21.042 21.35 21.546C20.45 22.05 19.35 21.6972 18.85 20.79C18.45 19.9836 17.65 19.53 16.75 19.53H13.8C13.2 19.53 12.55 19.782 12.15 20.2356C11.7 20.6892 11.45 21.294 11.45 21.8988C11.45 23.2092 12.5 24.2676 13.8 24.2676H16.75C18.35 24.2676 19.85 24.9228 21 26.0316C22.15 27.1908 22.75 28.7028 22.75 30.3156C22.85 33.5412 20.35 36.162 17.2 36.3636Z" fill="#E5E5E5"/>
</svg>
